<svg xmlns="http://www.w3.org/2000/svg" width="100" height="79" viewBox="0 0 100 79" fill="none">
  <path d="M36.8782 70.0049L51.5877 70.1165H66.7551C79.3162 64.441 88.1329 51.7442 88.1329 37.0841C88.1329 17.1417 71.859 0.851562 51.9566 0.851562C32.0127 0.851562 15.7305 17.1417 15.7305 37.0841C15.7305 51.6699 24.4024 64.3014 36.8782 70.0049Z" stroke="#101010" stroke-width="0.485291"/>
  <path d="M23.0919 20.2053V15.2494C21.9145 16.8088 20.8596 18.4667 19.9349 20.2053H23.0919Z" fill="white"/>
  <path d="M23.0919 20.2053V15.2494C21.9145 16.8088 20.8596 18.4667 19.9349 20.2053H23.0919Z" stroke="#101010" stroke-width="0.490583"/>
  <path d="M77.113 11.1238V14.684H80.3353C79.34 13.4334 78.2663 12.236 77.113 11.1238Z" fill="white"/>
  <path d="M77.113 11.1238V14.684H80.3353C79.34 13.4334 78.2663 12.236 77.113 11.1238Z" stroke="#101010" stroke-width="0.490583"/>
  <path d="M59.1211 1.57922V3.60522H62.644V2.4836C61.4881 2.11928 60.3133 1.81868 59.1211 1.57922Z" fill="white"/>
  <path d="M59.1211 1.57922V3.60522H62.644V2.4836C61.4881 2.11928 60.3133 1.81868 59.1211 1.57922Z" stroke="#101010" stroke-width="0.490583"/>
  <path d="M26.7535 14.6376H30.2594V20.2068H26.7535V14.6376Z" fill="white"/>
  <path d="M26.7535 14.6376H30.2594V20.2068H26.7535V14.6376Z" stroke="#101010" stroke-width="0.490583"/>
  <path d="M26.7535 20.2053H30.2594V25.764H26.7535V20.2053Z" fill="white"/>
  <path d="M26.7535 20.2053H30.2594V25.764H26.7535V20.2053Z" stroke="#101010" stroke-width="0.490583"/>
  <path d="M26.7535 25.715H30.2594V31.2789H26.7535V25.715Z" fill="white"/>
  <path d="M26.7535 25.715H30.2594V31.2789H26.7535V25.715Z" stroke="#101010" stroke-width="0.490583"/>
  <path d="M26.7535 31.2778H30.2594V36.8391H26.7535V31.2778Z" fill="white"/>
  <path d="M26.7535 31.2778H30.2594V36.8391H26.7535V31.2778Z" stroke="#101010" stroke-width="0.490583"/>
  <path d="M26.7535 36.7897H30.2594V42.3483H26.7535V36.7897Z" fill="white"/>
  <path d="M26.7535 36.7897H30.2594V42.3483H26.7535V36.7897Z" stroke="#101010" stroke-width="0.490583"/>
  <path d="M26.7535 42.3483H30.2594V47.9148H26.7535V42.3483Z" fill="white"/>
  <path d="M26.7535 42.3483H30.2594V47.9148H26.7535V42.3483Z" stroke="#101010" stroke-width="0.490583"/>
  <path d="M26.7535 47.8617H30.2594V53.4203H26.7535V47.8617Z" fill="white"/>
  <path d="M26.7535 47.8617H30.2594V53.4203H26.7535V47.8617Z" stroke="#101010" stroke-width="0.490583"/>
  <path d="M26.7535 53.374H30.2594V58.9406H26.7535V53.374Z" fill="white"/>
  <path d="M26.7535 53.374H30.2594V58.9406H26.7535V53.374Z" stroke="#101010" stroke-width="0.490583"/>
  <path d="M23.1545 20.2053H26.6525V25.764H23.1545V20.2053Z" fill="white"/>
  <path d="M23.1545 20.2053H26.6525V25.764H23.1545V20.2053Z" stroke="#101010" stroke-width="0.490583"/>
  <path d="M23.1545 25.715H26.6525V31.2789H23.1545V25.715Z" fill="white"/>
  <path d="M23.1545 25.715H26.6525V31.2789H23.1545V25.715Z" stroke="#101010" stroke-width="0.490583"/>
  <path d="M23.1545 31.2778H26.6525V36.8391H23.1545V31.2778Z" fill="white"/>
  <path d="M23.1545 31.2778H26.6525V36.8391H23.1545V31.2778Z" stroke="#101010" stroke-width="0.490583"/>
  <path d="M23.1545 36.7897H26.6525V42.3483H23.1545V36.7897Z" fill="white"/>
  <path d="M23.1545 36.7897H26.6525V42.3483H23.1545V36.7897Z" stroke="#101010" stroke-width="0.490583"/>
  <path d="M23.1545 42.3483H26.6525V47.9148H23.1545V42.3483Z" fill="white"/>
  <path d="M23.1545 42.3483H26.6525V47.9148H23.1545V42.3483Z" stroke="#101010" stroke-width="0.490583"/>
  <path d="M23.1545 47.8617H26.6525V53.4203H23.1545V47.8617Z" fill="white"/>
  <path d="M23.1545 47.8617H26.6525V53.4203H23.1545V47.8617Z" stroke="#101010" stroke-width="0.490583"/>
  <path d="M23.1545 53.374H26.6525V58.9406H23.1545V53.374Z" fill="white"/>
  <path d="M23.1545 53.374H26.6525V58.9406H23.1545V53.374Z" stroke="#101010" stroke-width="0.490583"/>
  <path d="M19.5822 25.715H23.0934V31.2789H19.5822V25.715Z" fill="white"/>
  <path d="M19.5822 25.715H23.0934V31.2789H19.5822V25.715Z" stroke="#101010" stroke-width="0.490583"/>
  <path d="M19.5822 31.2778H23.0934V36.8391H19.5822V31.2778Z" fill="white"/>
  <path d="M19.5822 31.2778H23.0934V36.8391H19.5822V31.2778Z" stroke="#101010" stroke-width="0.490583"/>
  <path d="M19.5822 36.7897H23.0934V42.3483H19.5822V36.7897Z" fill="white"/>
  <path d="M19.5822 36.7897H23.0934V42.3483H19.5822V36.7897Z" stroke="#101010" stroke-width="0.490583"/>
  <path d="M19.5822 42.3483H23.0934V47.9148H19.5822V42.3483Z" fill="white"/>
  <path d="M19.5822 42.3483H23.0934V47.9148H19.5822V42.3483Z" stroke="#101010" stroke-width="0.490583"/>
  <path d="M30.3684 9.12537H33.8713V14.684H30.3684V9.12537Z" fill="white"/>
  <path d="M30.3684 9.12537H33.8713V14.684H30.3684V9.12537Z" stroke="#101010" stroke-width="0.490583"/>
  <path d="M30.3684 14.6376H33.8713V20.2068H30.3684V14.6376Z" fill="white"/>
  <path d="M30.3684 14.6376H33.8713V20.2068H30.3684V14.6376Z" stroke="#101010" stroke-width="0.490583"/>
  <path d="M30.3684 20.2053H33.8713V25.764H30.3684V20.2053Z" fill="white"/>
  <path d="M30.3684 20.2053H33.8713V25.764H30.3684V20.2053Z" stroke="#101010" stroke-width="0.490583"/>
  <path d="M30.3684 25.715H33.8713V31.2789H30.3684V25.715Z" fill="white"/>
  <path d="M30.3684 25.715H33.8713V31.2789H30.3684V25.715Z" stroke="#101010" stroke-width="0.490583"/>
  <path d="M30.3684 31.2778H33.8713V36.8391H30.3684V31.2778Z" fill="white"/>
  <path d="M30.3684 31.2778H33.8713V36.8391H30.3684V31.2778Z" stroke="#101010" stroke-width="0.490583"/>
  <path d="M30.3684 36.7897H33.8713V42.3483H30.3684V36.7897Z" fill="white"/>
  <path d="M30.3684 36.7897H33.8713V42.3483H30.3684V36.7897Z" stroke="#101010" stroke-width="0.490583"/>
  <path d="M30.3684 42.3483H33.8713V47.9148H30.3684V42.3483Z" fill="white"/>
  <path d="M30.3684 42.3483H33.8713V47.9148H30.3684V42.3483Z" stroke="#101010" stroke-width="0.490583"/>
  <path d="M30.3684 47.8617H33.8713V53.4203H30.3684V47.8617Z" fill="white"/>
  <path d="M30.3684 47.8617H33.8713V53.4203H30.3684V47.8617Z" stroke="#101010" stroke-width="0.490583"/>
  <path d="M30.3684 53.374H33.8713V58.9406H30.3684V53.374Z" fill="white"/>
  <path d="M30.3684 53.374H33.8713V58.9406H30.3684V53.374Z" stroke="#101010" stroke-width="0.490583"/>
  <path d="M30.3684 58.9395H33.8713V64.5005H30.3684V58.9395Z" fill="white"/>
  <path d="M30.3684 58.9395H33.8713V64.5005H30.3684V58.9395Z" stroke="#101010" stroke-width="0.490583"/>
  <path d="M33.9671 9.12537H37.4809V14.684H33.9671V9.12537Z" fill="#101010"/>
  <path d="M33.9671 9.12537H37.4809V14.684H33.9671V9.12537Z" stroke="#101010" stroke-width="0.490583"/>
  <path d="M33.9671 14.6376H37.4809V20.2068H33.9671V14.6376Z" fill="white"/>
  <path d="M33.9671 14.6376H37.4809V20.2068H33.9671V14.6376Z" stroke="#101010" stroke-width="0.490583"/>
  <path d="M33.9671 20.2053H37.4809V25.764H33.9671V20.2053Z" fill="white"/>
  <path d="M33.9671 20.2053H37.4809V25.764H33.9671V20.2053Z" stroke="#101010" stroke-width="0.490583"/>
  <path d="M33.9671 25.715H37.4809V31.2789H33.9671V25.715Z" fill="white"/>
  <path d="M33.9671 25.715H37.4809V31.2789H33.9671V25.715Z" stroke="#101010" stroke-width="0.490583"/>
  <path d="M33.9671 31.2778H37.4809V36.8391H33.9671V31.2778Z" fill="white"/>
  <path d="M33.9671 31.2778H37.4809V36.8391H33.9671V31.2778Z" stroke="#101010" stroke-width="0.490583"/>
  <path d="M33.9671 36.7897H37.4809V42.3483H33.9671V36.7897Z" fill="white"/>
  <path d="M33.9671 36.7897H37.4809V42.3483H33.9671V36.7897Z" stroke="#101010" stroke-width="0.490583"/>
  <path d="M33.9671 42.3483H37.4809V47.9148H33.9671V42.3483Z" fill="white"/>
  <path d="M33.9671 42.3483H37.4809V47.9148H33.9671V42.3483Z" stroke="#101010" stroke-width="0.490583"/>
  <path d="M33.9671 47.8617H37.4809V53.4203H33.9671V47.8617Z" fill="white"/>
  <path d="M33.9671 47.8617H37.4809V53.4203H33.9671V47.8617Z" stroke="#101010" stroke-width="0.490583"/>
  <path d="M33.9671 53.374H37.4809V58.9406H33.9671V53.374Z" fill="white"/>
  <path d="M33.9671 53.374H37.4809V58.9406H33.9671V53.374Z" stroke="#101010" stroke-width="0.490583"/>
  <path d="M33.9671 58.9395H37.4809V64.5005H33.9671V58.9395Z" fill="#101010"/>
  <path d="M33.9671 58.9395H37.4809V64.5005H33.9671V58.9395Z" stroke="#101010" stroke-width="0.490583"/>
  <path d="M37.5276 9.12537H41.0331V14.684H37.5276V9.12537Z" fill="white"/>
  <path d="M37.5276 9.12537H41.0331V14.684H37.5276V9.12537Z" stroke="#101010" stroke-width="0.490583"/>
  <path d="M37.5276 14.6376H41.0331V20.2068H37.5276V14.6376Z" fill="#101010"/>
  <path d="M37.5276 14.6376H41.0331V20.2068H37.5276V14.6376Z" stroke="#101010" stroke-width="0.490583"/>
  <path d="M37.5276 20.2053H41.0331V25.764H37.5276V20.2053Z" fill="white"/>
  <path d="M37.5276 20.2053H41.0331V25.764H37.5276V20.2053Z" stroke="#101010" stroke-width="0.490583"/>
  <path d="M37.5276 25.715H41.0331V31.2789H37.5276V25.715Z" fill="white"/>
  <path d="M37.5276 25.715H41.0331V31.2789H37.5276V25.715Z" stroke="#101010" stroke-width="0.490583"/>
  <path d="M37.5276 31.2778H41.0331V36.8391H37.5276V31.2778Z" fill="white"/>
  <path d="M37.5276 31.2778H41.0331V36.8391H37.5276V31.2778Z" stroke="#101010" stroke-width="0.490583"/>
  <path d="M37.5276 36.7897H41.0331V42.3483H37.5276V36.7897Z" fill="white"/>
  <path d="M37.5276 36.7897H41.0331V42.3483H37.5276V36.7897Z" stroke="#101010" stroke-width="0.490583"/>
  <path d="M37.5276 42.3483H41.0331V47.9148H37.5276V42.3483Z" fill="white"/>
  <path d="M37.5276 42.3483H41.0331V47.9148H37.5276V42.3483Z" stroke="#101010" stroke-width="0.490583"/>
  <path d="M37.5276 47.8617H41.0331V53.4203H37.5276V47.8617Z" fill="white"/>
  <path d="M37.5276 47.8617H41.0331V53.4203H37.5276V47.8617Z" stroke="#101010" stroke-width="0.490583"/>
  <path d="M37.5276 53.374H41.0331V58.9406H37.5276V53.374Z" fill="#101010"/>
  <path d="M37.5276 53.374H41.0331V58.9406H37.5276V53.374Z" stroke="#101010" stroke-width="0.490583"/>
  <path d="M37.5276 58.9395H41.0331V64.5005H37.5276V58.9395Z" fill="white"/>
  <path d="M37.5276 58.9395H41.0331V64.5005H37.5276V58.9395Z" stroke="#101010" stroke-width="0.490583"/>
  <path d="M37.5276 64.4406H41.0331V70.0049H37.5276V64.4406Z" fill="#101010"/>
  <path d="M37.5276 64.4406H41.0331V70.0049H37.5276V64.4406Z" stroke="#101010" stroke-width="0.490583"/>
  <path d="M41.1346 9.12537H44.6454V14.684H41.1346V9.12537Z" fill="white"/>
  <path d="M41.1346 9.12537H44.6454V14.684H41.1346V9.12537Z" stroke="#101010" stroke-width="0.490583"/>
  <path d="M41.1346 3.56409H44.6454V9.12538H41.1346V3.56409Z" fill="white"/>
  <path d="M41.1346 3.56409H44.6454V9.12538H41.1346V3.56409Z" stroke="#101010" stroke-width="0.490583"/>
  <path d="M41.1346 14.6376H44.6454V20.2068H41.1346V14.6376Z" fill="white"/>
  <path d="M41.1346 14.6376H44.6454V20.2068H41.1346V14.6376Z" stroke="#101010" stroke-width="0.490583"/>
  <path d="M41.1346 20.2053H44.6454V25.764H41.1346V20.2053Z" fill="white"/>
  <path d="M41.1346 20.2053H44.6454V25.764H41.1346V20.2053Z" stroke="#101010" stroke-width="0.490583"/>
  <path d="M41.1346 25.715H44.6454V31.2789H41.1346V25.715Z" fill="white"/>
  <path d="M41.1346 25.715H44.6454V31.2789H41.1346V25.715Z" stroke="#101010" stroke-width="0.490583"/>
  <path d="M41.1346 31.2778H44.6454V36.8391H41.1346V31.2778Z" fill="white"/>
  <path d="M41.1346 31.2778H44.6454V36.8391H41.1346V31.2778Z" stroke="#101010" stroke-width="0.490583"/>
  <path d="M41.1346 36.7897H44.6454V42.3483H41.1346V36.7897Z" fill="white"/>
  <path d="M41.1346 36.7897H44.6454V42.3483H41.1346V36.7897Z" stroke="#101010" stroke-width="0.490583"/>
  <path d="M41.1346 42.3483H44.6454V47.9148H41.1346V42.3483Z" fill="white"/>
  <path d="M41.1346 42.3483H44.6454V47.9148H41.1346V42.3483Z" stroke="#101010" stroke-width="0.490583"/>
  <path d="M41.1346 47.8617H44.6454V53.4203H41.1346V47.8617Z" fill="white"/>
  <path d="M41.1346 47.8617H44.6454V53.4203H41.1346V47.8617Z" stroke="#101010" stroke-width="0.490583"/>
  <path d="M41.1346 53.374H44.6454V58.9406H41.1346V53.374Z" fill="white"/>
  <path d="M41.1346 53.374H44.6454V58.9406H41.1346V53.374Z" stroke="#101010" stroke-width="0.490583"/>
  <path d="M41.1346 58.9395H44.6454V64.5005H41.1346V58.9395Z" fill="#101010"/>
  <path d="M41.1346 58.9395H44.6454V64.5005H41.1346V58.9395Z" stroke="#101010" stroke-width="0.490583"/>
  <path d="M41.1346 64.4406H44.6454V70.0049H41.1346V64.4406Z" fill="white"/>
  <path d="M41.1346 64.4406H44.6454V70.0049H41.1346V64.4406Z" stroke="#101010" stroke-width="0.490583"/>
  <path d="M44.7464 9.12537H48.2496V14.684H44.7464V9.12537Z" fill="white"/>
  <path d="M44.7464 9.12537H48.2496V14.684H44.7464V9.12537Z" stroke="#101010" stroke-width="0.490583"/>
  <path d="M44.7464 3.56409H48.2496V9.12538H44.7464V3.56409Z" fill="white"/>
  <path d="M44.7464 3.56409H48.2496V9.12538H44.7464V3.56409Z" stroke="#101010" stroke-width="0.490583"/>
  <path d="M44.7464 14.6376H48.2496V20.2068H44.7464V14.6376Z" fill="white"/>
  <path d="M44.7464 14.6376H48.2496V20.2068H44.7464V14.6376Z" stroke="#101010" stroke-width="0.490583"/>
  <path d="M44.7464 20.2053H48.2496V25.764H44.7464V20.2053Z" fill="white"/>
  <path d="M44.7464 20.2053H48.2496V25.764H44.7464V20.2053Z" stroke="#101010" stroke-width="0.490583"/>
  <path d="M44.7464 25.715H48.2496V31.2789H44.7464V25.715Z" fill="white"/>
  <path d="M44.7464 25.715H48.2496V31.2789H44.7464V25.715Z" stroke="#101010" stroke-width="0.490583"/>
  <path d="M44.7464 31.2778H48.2496V36.8391H44.7464V31.2778Z" fill="white"/>
  <path d="M44.7464 31.2778H48.2496V36.8391H44.7464V31.2778Z" stroke="#101010" stroke-width="0.490583"/>
  <path d="M44.7464 36.7897H48.2496V42.3483H44.7464V36.7897Z" fill="white"/>
  <path d="M44.7464 36.7897H48.2496V42.3483H44.7464V36.7897Z" stroke="#101010" stroke-width="0.490583"/>
  <path d="M44.7464 42.3483H48.2496V47.9148H44.7464V42.3483Z" fill="white"/>
  <path d="M44.7464 42.3483H48.2496V47.9148H44.7464V42.3483Z" stroke="#101010" stroke-width="0.490583"/>
  <path d="M44.7464 47.8617H48.2496V53.4203H44.7464V47.8617Z" fill="white"/>
  <path d="M44.7464 47.8617H48.2496V53.4203H44.7464V47.8617Z" stroke="#101010" stroke-width="0.490583"/>
  <path d="M44.7464 53.374H48.2496V58.9406H44.7464V53.374Z" fill="white"/>
  <path d="M44.7464 53.374H48.2496V58.9406H44.7464V53.374Z" stroke="#101010" stroke-width="0.490583"/>
  <path d="M44.7464 58.9395H48.2496V64.5005H44.7464V58.9395Z" fill="white"/>
  <path d="M44.7464 58.9395H48.2496V64.5005H44.7464V58.9395Z" stroke="#101010" stroke-width="0.490583"/>
  <path d="M44.7464 64.4406H48.2496V70.0049H44.7464V64.4406Z" fill="white"/>
  <path d="M44.7464 64.4406H48.2496V70.0049H44.7464V64.4406Z" stroke="#101010" stroke-width="0.490583"/>
  <path d="M48.3575 9.12537H51.8619V14.684H48.3575V9.12537Z" fill="white"/>
  <path d="M48.3575 9.12537H51.8619V14.684H48.3575V9.12537Z" stroke="#101010" stroke-width="0.490583"/>
  <path d="M48.3575 3.56409H51.8619V9.12538H48.3575V3.56409Z" fill="#101010"/>
  <path d="M48.3575 3.56409H51.8619V9.12538H48.3575V3.56409Z" stroke="#101010" stroke-width="0.490583"/>
  <path d="M48.3575 14.6376H51.8619V20.2068H48.3575V14.6376Z" fill="white"/>
  <path d="M48.3575 14.6376H51.8619V20.2068H48.3575V14.6376Z" stroke="#101010" stroke-width="0.490583"/>
  <path d="M48.3575 20.2053H51.8619V25.764H48.3575V20.2053Z" fill="white"/>
  <path d="M48.3575 20.2053H51.8619V25.764H48.3575V20.2053Z" stroke="#101010" stroke-width="0.490583"/>
  <path d="M48.3575 25.715H51.8619V31.2789H48.3575V25.715Z" fill="white"/>
  <path d="M48.3575 25.715H51.8619V31.2789H48.3575V25.715Z" stroke="#101010" stroke-width="0.490583"/>
  <path d="M48.3575 31.2778H51.8619V36.8391H48.3575V31.2778Z" fill="white"/>
  <path d="M48.3575 31.2778H51.8619V36.8391H48.3575V31.2778Z" stroke="#101010" stroke-width="0.490583"/>
  <path d="M48.3575 36.7897H51.8619V42.3483H48.3575V36.7897Z" fill="white"/>
  <path d="M48.3575 36.7897H51.8619V42.3483H48.3575V36.7897Z" stroke="#101010" stroke-width="0.490583"/>
  <path d="M48.3575 42.3483H51.8619V47.9148H48.3575V42.3483Z" fill="white"/>
  <path d="M48.3575 42.3483H51.8619V47.9148H48.3575V42.3483Z" stroke="#101010" stroke-width="0.490583"/>
  <path d="M48.3575 47.8617H51.8619V53.4203H48.3575V47.8617Z" fill="white"/>
  <path d="M48.3575 47.8617H51.8619V53.4203H48.3575V47.8617Z" stroke="#101010" stroke-width="0.490583"/>
  <path d="M48.3575 53.374H51.8619V58.9406H48.3575V53.374Z" fill="white"/>
  <path d="M48.3575 53.374H51.8619V58.9406H48.3575V53.374Z" stroke="#101010" stroke-width="0.490583"/>
  <path d="M48.3575 58.9395H51.8619V64.5005H48.3575V58.9395Z" fill="white"/>
  <path d="M48.3575 58.9395H51.8619V64.5005H48.3575V58.9395Z" stroke="#101010" stroke-width="0.490583"/>
  <path d="M48.3575 64.4406H51.8619V70.0049H48.3575V64.4406Z" fill="white"/>
  <path d="M48.3575 64.4406H51.8619V70.0049H48.3575V64.4406Z" stroke="#101010" stroke-width="0.490583"/>
  <path d="M51.9566 9.12537H55.4676V14.684H51.9566V9.12537Z" fill="white"/>
  <path d="M51.9566 9.12537H55.4676V14.684H51.9566V9.12537Z" stroke="#101010" stroke-width="0.490583"/>
  <path d="M51.9566 3.56409H55.4676V9.12538H51.9566V3.56409Z" fill="white"/>
  <path d="M51.9566 3.56409H55.4676V9.12538H51.9566V3.56409Z" stroke="#101010" stroke-width="0.490583"/>
  <path d="M51.9566 14.6376H55.4676V20.2068H51.9566V14.6376Z" fill="white"/>
  <path d="M51.9566 14.6376H55.4676V20.2068H51.9566V14.6376Z" stroke="#101010" stroke-width="0.490583"/>
  <path d="M51.9566 20.2053H55.4676V25.764H51.9566V20.2053Z" fill="white"/>
  <path d="M51.9566 20.2053H55.4676V25.764H51.9566V20.2053Z" stroke="#101010" stroke-width="0.490583"/>
  <path d="M51.9566 25.715H55.4676V31.2789H51.9566V25.715Z" fill="white"/>
  <path d="M51.9566 25.715H55.4676V31.2789H51.9566V25.715Z" stroke="#101010" stroke-width="0.490583"/>
  <path d="M51.9566 31.2778H55.4676V36.8391H51.9566V31.2778Z" fill="white"/>
  <path d="M51.9566 31.2778H55.4676V36.8391H51.9566V31.2778Z" stroke="#101010" stroke-width="0.490583"/>
  <path d="M51.9566 36.7897H55.4676V42.3483H51.9566V36.7897Z" fill="white"/>
  <path d="M51.9566 36.7897H55.4676V42.3483H51.9566V36.7897Z" stroke="#101010" stroke-width="0.490583"/>
  <path d="M51.9566 42.3483H55.4676V47.9148H51.9566V42.3483Z" fill="white"/>
  <path d="M51.9566 42.3483H55.4676V47.9148H51.9566V42.3483Z" stroke="#101010" stroke-width="0.490583"/>
  <path d="M51.9566 47.8617H55.4676V53.4203H51.9566V47.8617Z" fill="white"/>
  <path d="M51.9566 47.8617H55.4676V53.4203H51.9566V47.8617Z" stroke="#101010" stroke-width="0.490583"/>
  <path d="M51.9566 53.374H55.4676V58.9406H51.9566V53.374Z" fill="#101010"/>
  <path d="M51.9566 53.374H55.4676V58.9406H51.9566V53.374Z" stroke="#101010" stroke-width="0.490583"/>
  <path d="M51.9566 58.9395H55.4676V64.5005H51.9566V58.9395Z" fill="white"/>
  <path d="M51.9566 58.9395H55.4676V64.5005H51.9566V58.9395Z" stroke="#101010" stroke-width="0.490583"/>
  <path d="M51.9566 64.4406H55.4676V70.0049H51.9566V64.4406Z" fill="white"/>
  <path d="M51.9566 64.4406H55.4676V70.0049H51.9566V64.4406Z" stroke="#101010" stroke-width="0.490583"/>
  <path d="M55.5222 9.12537H59.0281V14.684H55.5222V9.12537Z" fill="white"/>
  <path d="M55.5222 9.12537H59.0281V14.684H55.5222V9.12537Z" stroke="#101010" stroke-width="0.490583"/>
  <path d="M55.5222 3.56409H59.0281V9.12538H55.5222V3.56409Z" fill="white"/>
  <path d="M55.5222 3.56409H59.0281V9.12538H55.5222V3.56409Z" stroke="#101010" stroke-width="0.490583"/>
  <path d="M55.5222 14.6376H59.0281V20.2068H55.5222V14.6376Z" fill="white"/>
  <path d="M55.5222 14.6376H59.0281V20.2068H55.5222V14.6376Z" stroke="#101010" stroke-width="0.490583"/>
  <path d="M55.5222 20.2053H59.0281V25.764H55.5222V20.2053Z" fill="white"/>
  <path d="M55.5222 20.2053H59.0281V25.764H55.5222V20.2053Z" stroke="#101010" stroke-width="0.490583"/>
  <path d="M55.5222 25.715H59.0281V31.2789H55.5222V25.715Z" fill="white"/>
  <path d="M55.5222 25.715H59.0281V31.2789H55.5222V25.715Z" stroke="#101010" stroke-width="0.490583"/>
  <path d="M55.5222 31.2778H59.0281V36.8391H55.5222V31.2778Z" fill="white"/>
  <path d="M55.5222 31.2778H59.0281V36.8391H55.5222V31.2778Z" stroke="#101010" stroke-width="0.490583"/>
  <path d="M55.5222 36.7897H59.0281V42.3483H55.5222V36.7897Z" fill="white"/>
  <path d="M55.5222 36.7897H59.0281V42.3483H55.5222V36.7897Z" stroke="#101010" stroke-width="0.490583"/>
  <path d="M55.5222 42.3483H59.0281V47.9148H55.5222V42.3483Z" fill="white"/>
  <path d="M55.5222 42.3483H59.0281V47.9148H55.5222V42.3483Z" stroke="#101010" stroke-width="0.490583"/>
  <path d="M55.5222 47.8617H59.0281V53.4203H55.5222V47.8617Z" fill="white"/>
  <path d="M55.5222 47.8617H59.0281V53.4203H55.5222V47.8617Z" stroke="#101010" stroke-width="0.490583"/>
  <path d="M55.5222 53.374H59.0281V58.9406H55.5222V53.374Z" fill="white"/>
  <path d="M55.5222 53.374H59.0281V58.9406H55.5222V53.374Z" stroke="#101010" stroke-width="0.490583"/>
  <path d="M55.5222 58.9395H59.0281V64.5005H55.5222V58.9395Z" fill="white"/>
  <path d="M55.5222 58.9395H59.0281V64.5005H55.5222V58.9395Z" stroke="#101010" stroke-width="0.490583"/>
  <path d="M55.5222 64.4406H59.0281V70.0049H55.5222V64.4406Z" fill="white"/>
  <path d="M55.5222 64.4406H59.0281V70.0049H55.5222V64.4406Z" stroke="#101010" stroke-width="0.490583"/>
  <path d="M59.1211 9.12537H62.6438V14.684H59.1211V9.12537Z" fill="white"/>
  <path d="M59.1211 9.12537H62.6438V14.684H59.1211V9.12537Z" stroke="#101010" stroke-width="0.490583"/>
  <path d="M59.1211 3.56409H62.6438V9.12538H59.1211V3.56409Z" fill="white"/>
  <path d="M59.1211 3.56409H62.6438V9.12538H59.1211V3.56409Z" stroke="#101010" stroke-width="0.490583"/>
  <path d="M59.1211 14.6376H62.6438V20.2068H59.1211V14.6376Z" fill="white"/>
  <path d="M59.1211 14.6376H62.6438V20.2068H59.1211V14.6376Z" stroke="#101010" stroke-width="0.490583"/>
  <path d="M59.1211 20.2053H62.6438V25.764H59.1211V20.2053Z" fill="white"/>
  <path d="M59.1211 20.2053H62.6438V25.764H59.1211V20.2053Z" stroke="#101010" stroke-width="0.490583"/>
  <path d="M59.1211 25.715H62.6438V31.2789H59.1211V25.715Z" fill="white"/>
  <path d="M59.1211 25.715H62.6438V31.2789H59.1211V25.715Z" stroke="#101010" stroke-width="0.490583"/>
  <path d="M59.1211 31.2778H62.6438V36.8391H59.1211V31.2778Z" fill="white"/>
  <path d="M59.1211 31.2778H62.6438V36.8391H59.1211V31.2778Z" stroke="#101010" stroke-width="0.490583"/>
  <path d="M59.1211 36.7897H62.6438V42.3483H59.1211V36.7897Z" fill="white"/>
  <path d="M59.1211 36.7897H62.6438V42.3483H59.1211V36.7897Z" stroke="#101010" stroke-width="0.490583"/>
  <path d="M59.1211 42.3483H62.6438V47.9148H59.1211V42.3483Z" fill="white"/>
  <path d="M59.1211 42.3483H62.6438V47.9148H59.1211V42.3483Z" stroke="#101010" stroke-width="0.490583"/>
  <path d="M59.1211 47.8617H62.6438V53.4203H59.1211V47.8617Z" fill="white"/>
  <path d="M59.1211 47.8617H62.6438V53.4203H59.1211V47.8617Z" stroke="#101010" stroke-width="0.490583"/>
  <path d="M59.1211 53.374H62.6438V58.9406H59.1211V53.374Z" fill="white"/>
  <path d="M59.1211 53.374H62.6438V58.9406H59.1211V53.374Z" stroke="#101010" stroke-width="0.490583"/>
  <path d="M59.1211 58.9395H62.6438V64.5005H59.1211V58.9395Z" fill="white"/>
  <path d="M59.1211 58.9395H62.6438V64.5005H59.1211V58.9395Z" stroke="#101010" stroke-width="0.490583"/>
  <path d="M59.1211 64.4406H62.6438V70.0049H59.1211V64.4406Z" fill="white"/>
  <path d="M59.1211 64.4406H62.6438V70.0049H59.1211V64.4406Z" stroke="#101010" stroke-width="0.490583"/>
  <path d="M62.7362 9.12537H66.2308V14.684H62.7362V9.12537Z" fill="white"/>
  <path d="M62.7362 9.12537H66.2308V14.684H62.7362V9.12537Z" stroke="#101010" stroke-width="0.490583"/>
  <path d="M62.7362 14.6376H66.2308V20.2068H62.7362V14.6376Z" fill="white"/>
  <path d="M62.7362 14.6376H66.2308V20.2068H62.7362V14.6376Z" stroke="#101010" stroke-width="0.490583"/>
  <path d="M62.7362 20.2053H66.2308V25.764H62.7362V20.2053Z" fill="white"/>
  <path d="M62.7362 20.2053H66.2308V25.764H62.7362V20.2053Z" stroke="#101010" stroke-width="0.490583"/>
  <path d="M62.7362 25.715H66.2308V31.2789H62.7362V25.715Z" fill="white"/>
  <path d="M62.7362 25.715H66.2308V31.2789H62.7362V25.715Z" stroke="#101010" stroke-width="0.490583"/>
  <path d="M62.7362 31.2778H66.2308V36.8391H62.7362V31.2778Z" fill="white"/>
  <path d="M62.7362 31.2778H66.2308V36.8391H62.7362V31.2778Z" stroke="#101010" stroke-width="0.490583"/>
  <path d="M62.7362 36.7897H66.2308V42.3483H62.7362V36.7897Z" fill="white"/>
  <path d="M62.7362 36.7897H66.2308V42.3483H62.7362V36.7897Z" stroke="#101010" stroke-width="0.490583"/>
  <path d="M62.7362 42.3483H66.2308V47.9148H62.7362V42.3483Z" fill="white"/>
  <path d="M62.7362 42.3483H66.2308V47.9148H62.7362V42.3483Z" stroke="#101010" stroke-width="0.490583"/>
  <path d="M62.7362 47.8617H66.2308V53.4203H62.7362V47.8617Z" fill="white"/>
  <path d="M62.7362 47.8617H66.2308V53.4203H62.7362V47.8617Z" stroke="#101010" stroke-width="0.490583"/>
  <path d="M62.7362 53.374H66.2308V58.9406H62.7362V53.374Z" fill="white"/>
  <path d="M62.7362 53.374H66.2308V58.9406H62.7362V53.374Z" stroke="#101010" stroke-width="0.490583"/>
  <path d="M62.7362 58.9395H66.2308V64.5005H62.7362V58.9395Z" fill="white"/>
  <path d="M62.7362 58.9395H66.2308V64.5005H62.7362V58.9395Z" stroke="#101010" stroke-width="0.490583"/>
  <path d="M62.7362 64.4406H66.2308V70.0049H62.7362V64.4406Z" fill="white"/>
  <path d="M62.7362 64.4406H66.2308V70.0049H62.7362V64.4406Z" stroke="#101010" stroke-width="0.490583"/>
  <path d="M66.3492 9.12537H69.8551V14.684H66.3492V9.12537Z" fill="white"/>
  <path d="M66.3492 9.12537H69.8551V14.684H66.3492V9.12537Z" stroke="#101010" stroke-width="0.490583"/>
  <path d="M66.3492 14.6376H69.8551V20.2068H66.3492V14.6376Z" fill="#101010"/>
  <path d="M66.3492 14.6376H69.8551V20.2068H66.3492V14.6376Z" stroke="#101010" stroke-width="0.490583"/>
  <path d="M66.3492 20.2053H69.8551V25.764H66.3492V20.2053Z" fill="white"/>
  <path d="M66.3492 20.2053H69.8551V25.764H66.3492V20.2053Z" stroke="#101010" stroke-width="0.490583"/>
  <path d="M66.3492 25.715H69.8551V31.2789H66.3492V25.715Z" fill="white"/>
  <path d="M66.3492 25.715H69.8551V31.2789H66.3492V25.715Z" stroke="#101010" stroke-width="0.490583"/>
  <path d="M66.3492 31.2778H69.8551V36.8391H66.3492V31.2778Z" fill="white"/>
  <path d="M66.3492 31.2778H69.8551V36.8391H66.3492V31.2778Z" stroke="#101010" stroke-width="0.490583"/>
  <path d="M66.3492 36.7897H69.8551V42.3483H66.3492V36.7897Z" fill="white"/>
  <path d="M66.3492 36.7897H69.8551V42.3483H66.3492V36.7897Z" stroke="#101010" stroke-width="0.490583"/>
  <path d="M66.3492 42.3483H69.8551V47.9148H66.3492V42.3483Z" fill="white"/>
  <path d="M66.3492 42.3483H69.8551V47.9148H66.3492V42.3483Z" stroke="#101010" stroke-width="0.490583"/>
  <path d="M66.3492 47.8617H69.8551V53.4203H66.3492V47.8617Z" fill="white"/>
  <path d="M66.3492 47.8617H69.8551V53.4203H66.3492V47.8617Z" stroke="#101010" stroke-width="0.490583"/>
  <path d="M66.3492 53.374H69.8551V58.9406H66.3492V53.374Z" fill="white"/>
  <path d="M66.3492 53.374H69.8551V58.9406H66.3492V53.374Z" stroke="#101010" stroke-width="0.490583"/>
  <path d="M66.3492 58.9395H69.8551V64.5005H66.3492V58.9395Z" fill="#101010"/>
  <path d="M66.3492 58.9395H69.8551V64.5005H66.3492V58.9395Z" stroke="#101010" stroke-width="0.490583"/>
  <path d="M69.8989 9.12537H73.413V14.684H69.8989V9.12537Z" fill="white"/>
  <path d="M69.8989 9.12537H73.413V14.684H69.8989V9.12537Z" stroke="#101010" stroke-width="0.490583"/>
  <path d="M69.8989 14.6376H73.413V20.2068H69.8989V14.6376Z" fill="white"/>
  <path d="M69.8989 14.6376H73.413V20.2068H69.8989V14.6376Z" stroke="#101010" stroke-width="0.490583"/>
  <path d="M69.8989 20.2053H73.413V25.764H69.8989V20.2053Z" fill="white"/>
  <path d="M69.8989 20.2053H73.413V25.764H69.8989V20.2053Z" stroke="#101010" stroke-width="0.490583"/>
  <path d="M69.8989 25.715H73.413V31.2789H69.8989V25.715Z" fill="white"/>
  <path d="M69.8989 25.715H73.413V31.2789H69.8989V25.715Z" stroke="#101010" stroke-width="0.490583"/>
  <path d="M69.8989 31.2778H73.413V36.8391H69.8989V31.2778Z" fill="white"/>
  <path d="M69.8989 31.2778H73.413V36.8391H69.8989V31.2778Z" stroke="#101010" stroke-width="0.490583"/>
  <path d="M69.8989 36.7897H73.413V42.3483H69.8989V36.7897Z" fill="white"/>
  <path d="M69.8989 36.7897H73.413V42.3483H69.8989V36.7897Z" stroke="#101010" stroke-width="0.490583"/>
  <path d="M69.8989 42.3483H73.413V47.9148H69.8989V42.3483Z" fill="white"/>
  <path d="M69.8989 42.3483H73.413V47.9148H69.8989V42.3483Z" stroke="#101010" stroke-width="0.490583"/>
  <path d="M69.8989 47.8617H73.413V53.4203H69.8989V47.8617Z" fill="white"/>
  <path d="M69.8989 47.8617H73.413V53.4203H69.8989V47.8617Z" stroke="#101010" stroke-width="0.490583"/>
  <path d="M69.8989 53.374H73.413V58.9406H69.8989V53.374Z" fill="#101010"/>
  <path d="M69.8989 53.374H73.413V58.9406H69.8989V53.374Z" stroke="#101010" stroke-width="0.490583"/>
  <path d="M69.8989 58.9395H73.413V64.5005H69.8989V58.9395Z" fill="white"/>
  <path d="M69.8989 58.9395H73.413V64.5005H69.8989V58.9395Z" stroke="#101010" stroke-width="0.490583"/>
  <path d="M73.5114 14.6376H77.0119V20.2068H73.5114V14.6376Z" fill="white"/>
  <path d="M73.5114 14.6376H77.0119V20.2068H73.5114V14.6376Z" stroke="#101010" stroke-width="0.490583"/>
  <path d="M73.5114 20.2053H77.0119V25.764H73.5114V20.2053Z" fill="white"/>
  <path d="M73.5114 20.2053H77.0119V25.764H73.5114V20.2053Z" stroke="#101010" stroke-width="0.490583"/>
  <path d="M73.5114 25.715H77.0119V31.2789H73.5114V25.715Z" fill="white"/>
  <path d="M73.5114 25.715H77.0119V31.2789H73.5114V25.715Z" stroke="#101010" stroke-width="0.490583"/>
  <path d="M73.5114 31.2778H77.0119V36.8391H73.5114V31.2778Z" fill="white"/>
  <path d="M73.5114 31.2778H77.0119V36.8391H73.5114V31.2778Z" stroke="#101010" stroke-width="0.490583"/>
  <path d="M73.5114 36.7897H77.0119V42.3483H73.5114V36.7897Z" fill="white"/>
  <path d="M73.5114 36.7897H77.0119V42.3483H73.5114V36.7897Z" stroke="#101010" stroke-width="0.490583"/>
  <path d="M73.5114 42.3483H77.0119V47.9148H73.5114V42.3483Z" fill="white"/>
  <path d="M73.5114 42.3483H77.0119V47.9148H73.5114V42.3483Z" stroke="#101010" stroke-width="0.490583"/>
  <path d="M73.5114 47.8617H77.0119V53.4203H73.5114V47.8617Z" fill="white"/>
  <path d="M73.5114 47.8617H77.0119V53.4203H73.5114V47.8617Z" stroke="#101010" stroke-width="0.490583"/>
  <path d="M73.5114 53.374H77.0119V58.9406H73.5114V53.374Z" fill="white"/>
  <path d="M73.5114 53.374H77.0119V58.9406H73.5114V53.374Z" stroke="#101010" stroke-width="0.490583"/>
  <path d="M77.113 20.2053H80.6216V25.764H77.113V20.2053Z" fill="white"/>
  <path d="M77.113 20.2053H80.6216V25.764H77.113V20.2053Z" stroke="#101010" stroke-width="0.490583"/>
  <path d="M77.113 25.715H80.6216V31.2789H77.113V25.715Z" fill="white"/>
  <path d="M77.113 25.715H80.6216V31.2789H77.113V25.715Z" stroke="#101010" stroke-width="0.490583"/>
  <path d="M77.113 31.2778H80.6216V36.8391H77.113V31.2778Z" fill="white"/>
  <path d="M77.113 31.2778H80.6216V36.8391H77.113V31.2778Z" stroke="#101010" stroke-width="0.490583"/>
  <path d="M77.113 36.7897H80.6216V42.3483H77.113V36.7897Z" fill="white"/>
  <path d="M77.113 36.7897H80.6216V42.3483H77.113V36.7897Z" stroke="#101010" stroke-width="0.490583"/>
  <path d="M77.113 42.3483H80.6216V47.9148H77.113V42.3483Z" fill="white"/>
  <path d="M77.113 42.3483H80.6216V47.9148H77.113V42.3483Z" stroke="#101010" stroke-width="0.490583"/>
  <path d="M77.113 47.8617H80.6216V53.4203H77.113V47.8617Z" fill="white"/>
  <path d="M77.113 47.8617H80.6216V53.4203H77.113V47.8617Z" stroke="#101010" stroke-width="0.490583"/>
  <path d="M77.113 53.374H80.6216V58.9406H77.113V53.374Z" fill="white"/>
  <path d="M77.113 53.374H80.6216V58.9406H77.113V53.374Z" stroke="#101010" stroke-width="0.490583"/>
  <path d="M80.7254 25.715H84.2335V31.2789H80.7254V25.715Z" fill="white"/>
  <path d="M80.7254 25.715H84.2335V31.2789H80.7254V25.715Z" stroke="#101010" stroke-width="0.490583"/>
  <path d="M80.7254 31.2778H84.2335V36.8391H80.7254V31.2778Z" fill="white"/>
  <path d="M80.7254 31.2778H84.2335V36.8391H80.7254V31.2778Z" stroke="#101010" stroke-width="0.490583"/>
  <path d="M80.7254 36.7897H84.2335V42.3483H80.7254V36.7897Z" fill="white"/>
  <path d="M80.7254 36.7897H84.2335V42.3483H80.7254V36.7897Z" stroke="#101010" stroke-width="0.490583"/>
  <path d="M80.7254 42.3483H84.2335V47.9148H80.7254V42.3483Z" fill="white"/>
  <path d="M80.7254 42.3483H84.2335V47.9148H80.7254V42.3483Z" stroke="#101010" stroke-width="0.490583"/>
  <path d="M87.7313 42.3457L84.2773 42.3483V36.7897L88.1292 36.7712L87.7313 42.3457Z" fill="white"/>
  <path d="M87.7313 42.3457L84.2773 42.3483V36.7897L88.1292 36.7712L87.7313 42.3457Z" stroke="#101010" stroke-width="0.490583"/>
  <path d="M23.1545 15.1856V20.2053H26.6525V14.6376H23.5777C23.4355 14.8156 23.2929 15.0035 23.1545 15.1856Z" fill="white"/>
  <path d="M23.1545 15.1856V20.2053H26.6525V14.6376H23.5777C23.4355 14.8156 23.2929 15.0035 23.1545 15.1856Z" stroke="#101010" stroke-width="0.490583"/>
  <path d="M23.0919 20.2053H19.9349C19.8123 20.4211 19.7006 20.65 19.5822 20.8759V25.764H23.0919V20.2053Z" fill="white"/>
  <path d="M23.0919 20.2053H19.9349C19.8123 20.4211 19.7006 20.65 19.5822 20.8759V25.764H23.0919V20.2053Z" stroke="#101010" stroke-width="0.490583"/>
  <path d="M84.2335 20.7774C84.1351 20.5821 84.0407 20.3958 83.9344 20.2053H80.7253V25.764H84.2335V20.7774Z" fill="white"/>
  <path d="M84.2335 20.7774C84.1351 20.5821 84.0407 20.3958 83.9344 20.2053H80.7253V25.764H84.2335V20.7774Z" stroke="#101010" stroke-width="0.490583"/>
  <path d="M80.6216 15.0577C80.5176 14.9114 80.4059 14.7771 80.2943 14.6376H77.1131V20.2053H80.6216V15.0577Z" fill="white"/>
  <path d="M80.6216 15.0577C80.5176 14.9114 80.4059 14.7771 80.2943 14.6376H77.1131V20.2053H80.6216V15.0577Z" stroke="#101010" stroke-width="0.490583"/>
  <path d="M65.6297 3.56409H62.736V9.12538H66.2309V3.81944C66.0382 3.72776 65.833 3.65311 65.6297 3.56409Z" fill="white"/>
  <path d="M65.6297 3.56409H62.736V9.12538H66.2309V3.81944C66.0382 3.72776 65.833 3.65311 65.6297 3.56409Z" stroke="#101010" stroke-width="0.490583"/>
  <path d="M41.0331 2.55298C40.0556 2.86822 39.0867 3.21822 38.1356 3.60519H41.0331V2.55298Z" fill="white"/>
  <path d="M41.0331 2.55298C40.0556 2.86822 39.0867 3.21822 38.1356 3.60519H41.0331V2.55298Z" stroke="#101010" stroke-width="0.490583"/>
  <path d="M41.1346 2.52507V3.60524H44.6443V1.60297C43.4547 1.85718 42.2852 2.16189 41.1346 2.52507Z" fill="white"/>
  <path d="M41.1346 2.52507V3.60524H44.6443V1.60297C43.4547 1.85718 42.2852 2.16189 41.1346 2.52507Z" stroke="#101010" stroke-width="0.490583"/>
  <path d="M44.7464 1.58444V3.6052H48.2485V1.04401C47.0669 1.1666 45.9027 1.34498 44.7464 1.58444Z" fill="white"/>
  <path d="M44.7464 1.58444V3.6052H48.2485V1.04401C47.0669 1.1666 45.9027 1.34498 44.7464 1.58444Z" stroke="#101010" stroke-width="0.490583"/>
  <path d="M51.8634 0.861877C50.6751 0.864526 49.5149 0.927121 48.3575 1.04404V3.60523H51.8634V0.861877Z" fill="white"/>
  <path d="M51.8634 0.861877C50.6751 0.864526 49.5149 0.927121 48.3575 1.04404V3.60523H51.8634V0.861877Z" stroke="#101010" stroke-width="0.490583"/>
  <path d="M55.4676 3.60521V1.03083C54.3128 0.921859 53.1421 0.851318 51.9568 0.851318V3.60521H55.4676Z" fill="white"/>
  <path d="M55.4676 3.60521V1.03083C54.3128 0.921859 53.1421 0.851318 51.9568 0.851318V3.60521H55.4676Z" stroke="#101010" stroke-width="0.490583"/>
  <path d="M55.5222 1.03876V3.60519H59.0265V1.55768C57.8732 1.33027 56.7037 1.156 55.5222 1.03876Z" fill="white"/>
  <path d="M55.5222 1.03876V3.60519H59.0265V1.55768C57.8732 1.33027 56.7037 1.156 55.5222 1.03876Z" stroke="#101010" stroke-width="0.490583"/>
  <path d="M62.7362 2.50616V3.60519H65.7548C64.7622 3.20616 63.7673 2.82979 62.7362 2.50616Z" fill="white"/>
  <path d="M62.7362 2.50616V3.60519H65.7548C64.7622 3.20616 63.7673 2.82979 62.7362 2.50616Z" stroke="#101010" stroke-width="0.490583"/>
  <path d="M69.8551 5.64097C68.7203 4.99151 67.5535 4.39037 66.3492 3.8714V9.12535H69.8551V5.64097Z" fill="white"/>
  <path d="M69.8551 5.64097C68.7203 4.99151 67.5535 4.39037 66.3492 3.8714V9.12535H69.8551V5.64097Z" stroke="#101010" stroke-width="0.490583"/>
  <path d="M69.8989 5.66626V9.1254H73.4127V7.95588C72.29 7.13523 71.1122 6.36588 69.8989 5.66626Z" fill="white"/>
  <path d="M69.8989 5.66626V9.1254H73.4127V7.95588C72.29 7.13523 71.1122 6.36588 69.8989 5.66626Z" stroke="#101010" stroke-width="0.490583"/>
  <path d="M73.5114 8.03162V9.12535H74.9098C74.4546 8.75162 73.9851 8.38691 73.5114 8.03162Z" fill="white"/>
  <path d="M73.5114 8.03162V9.12535H74.9098C74.4546 8.75162 73.9851 8.38691 73.5114 8.03162Z" stroke="#101010" stroke-width="0.490583"/>
  <path d="M74.9097 9.12537H73.5113V14.684H77.0119V11.0254C76.3388 10.3695 75.6372 9.72801 74.9097 9.12537Z" fill="white"/>
  <path d="M74.9097 9.12537H73.5113V14.684H77.0119V11.0254C76.3388 10.3695 75.6372 9.72801 74.9097 9.12537Z" stroke="#101010" stroke-width="0.490583"/>
  <path d="M80.7254 15.1856V20.2053H83.9345C82.9992 18.4389 81.9202 16.7594 80.7254 15.1856Z" fill="white"/>
  <path d="M80.7254 15.1856V20.2053H83.9345C82.9992 18.4389 81.9202 16.7594 80.7254 15.1856Z" stroke="#101010" stroke-width="0.490583"/>
  <path d="M84.2773 20.8733V25.764H86.3089C85.7553 24.0744 85.0727 22.438 84.2773 20.8733Z" fill="white"/>
  <path d="M84.2773 20.8733V25.764H86.3089C85.7553 24.0744 85.0727 22.438 84.2773 20.8733Z" stroke="#101010" stroke-width="0.490583"/>
  <path d="M86.2994 25.715H84.2772V31.2778H87.6632C87.3585 29.371 86.8942 27.5177 86.2994 25.715Z" fill="white"/>
  <path d="M86.2994 25.715H84.2772V31.2778H87.6632C87.3585 29.371 86.8942 27.5177 86.2994 25.715Z" stroke="#101010" stroke-width="0.490583"/>
  <path d="M86.4887 47.8617H84.2775V53.2596C85.1476 51.5286 85.8992 49.7323 86.4887 47.8617Z" fill="white"/>
  <path d="M86.4887 47.8617H84.2775V53.2596C85.1476 51.5286 85.8992 49.7323 86.4887 47.8617Z" stroke="#101010" stroke-width="0.490583"/>
  <path d="M80.7254 53.374V58.9394H80.7559C82.0771 57.2068 83.2251 55.3324 84.2256 53.374H80.7254Z" fill="white"/>
  <path d="M80.7254 53.374V58.9394H80.7559C82.0771 57.2068 83.2251 55.3324 84.2256 53.374H80.7254Z" stroke="#101010" stroke-width="0.490583"/>
  <path d="M77.113 63.0395C78.3757 61.8209 79.5452 60.5115 80.6215 59.1161V58.9392H77.113V63.0395Z" fill="white"/>
  <path d="M77.113 63.0395C78.3757 61.8209 79.5452 60.5115 80.6215 59.1161V58.9392H77.113V63.0395Z" stroke="#101010" stroke-width="0.490583"/>
  <path d="M73.5114 64.5006H75.5283C76.0431 64.0616 76.5315 63.5985 77.012 63.1368V58.9393H73.5114V64.5006Z" fill="white"/>
  <path d="M73.5114 64.5006H75.5283C76.0431 64.0616 76.5315 63.5985 77.012 63.1368V58.9393H73.5114V64.5006Z" stroke="#101010" stroke-width="0.490583"/>
  <path d="M73.5114 64.4406V66.1169C74.2151 65.5886 74.9098 65.0327 75.583 64.4406H73.5114Z" fill="white"/>
  <path d="M73.5114 64.4406V66.1169C74.2151 65.5886 74.9098 65.0327 75.583 64.4406H73.5114Z" stroke="#101010" stroke-width="0.490583"/>
  <path d="M69.8989 68.4708C71.1096 67.7777 72.29 67.0282 73.4127 66.1997V64.4407H69.8989V68.4708Z" fill="white"/>
  <path d="M69.8989 68.4708C71.1096 67.7777 72.29 67.0282 73.4127 66.1997V64.4407H69.8989V68.4708Z" stroke="#101010" stroke-width="0.490583"/>
  <path d="M66.3492 70.0049H66.9451C67.943 69.558 68.9088 69.0375 69.8551 68.5028V64.441H66.3492V70.0049Z" fill="white"/>
  <path d="M66.3492 70.0049H66.9451C67.943 69.558 68.9088 69.0375 69.8551 68.5028V64.441H66.3492V70.0049Z" stroke="#101010" stroke-width="0.490583"/>
  <path d="M37.4809 64.4406H33.9671V68.4944C34.9186 69.0371 35.8818 69.5576 36.8782 70.0044H37.4809V64.4406Z" fill="white"/>
  <path d="M37.4809 64.4406H33.9671V68.4944C34.9186 69.0371 35.8818 69.5576 36.8782 70.0044H37.4809V64.4406Z" stroke="#101010" stroke-width="0.490583"/>
  <path d="M30.3684 66.1503C31.4859 66.9792 32.6633 67.7441 33.8713 68.4373V64.4407H30.3684V66.1503Z" fill="white"/>
  <path d="M30.3684 66.1503C31.4859 66.9792 32.6633 67.7441 33.8713 68.4373V64.4407H30.3684V66.1503Z" stroke="#101010" stroke-width="0.490583"/>
  <path d="M30.2594 66.0676V64.4406H28.2448C28.8968 65.0127 29.5726 65.5581 30.2594 66.0676Z" fill="white"/>
  <path d="M30.2594 66.0676V64.4406H28.2448C28.8968 65.0127 29.5726 65.5581 30.2594 66.0676Z" stroke="#101010" stroke-width="0.490583"/>
  <path d="M26.7535 63.0746C27.2604 63.563 27.7752 64.0378 28.2994 64.5009H30.2594V58.9396H26.7535V63.0746Z" fill="white"/>
  <path d="M26.7535 63.0746C27.2604 63.563 27.7752 64.0378 28.2994 64.5009H30.2594V58.9396H26.7535V63.0746Z" stroke="#101010" stroke-width="0.490583"/>
  <path d="M23.1545 59.026C24.2177 60.4187 25.3951 61.7466 26.6525 62.9788V58.9396H23.1545V59.026Z" fill="white"/>
  <path d="M23.1545 59.026C24.2177 60.4187 25.3951 61.7466 26.6525 62.9788V58.9396H23.1545V59.026Z" stroke="#101010" stroke-width="0.490583"/>
  <path d="M23.0919 53.374H19.6234C20.6134 55.3324 21.7644 57.2068 23.0814 58.9394H23.0919V53.374Z" fill="white"/>
  <path d="M23.0919 53.374H19.6234C20.6134 55.3324 21.7644 57.2068 23.0814 58.9394H23.0919V53.374Z" stroke="#101010" stroke-width="0.490583"/>
  <path d="M19.4932 42.3483H16.1205C16.3958 44.2551 16.8322 46.1189 17.3963 47.9137H19.4932V42.3483Z" fill="white"/>
  <path d="M19.4932 42.3483H16.1205C16.3958 44.2551 16.8322 46.1189 17.3963 47.9137H19.4932V42.3483Z" stroke="#101010" stroke-width="0.490583"/>
  <path d="M19.4933 53.1066V47.8617H17.3858C17.9527 49.6753 18.6616 51.417 19.4933 53.1066Z" fill="white"/>
  <path d="M19.4933 53.1066V47.8617H17.3858C17.9527 49.6753 18.6616 51.417 19.4933 53.1066Z" stroke="#101010" stroke-width="0.490583"/>
  <path d="M19.4932 31.2778H16.2109C16.1205 31.819 16.0447 32.362 15.9794 32.9179L15.7852 36.8576L19.4932 36.8391V31.2778Z" fill="white"/>
  <path d="M19.4932 31.2778H16.2109C16.1205 31.819 16.0447 32.362 15.9794 32.9179L15.7852 36.8576L19.4932 36.8391V31.2778Z" stroke="#101010" stroke-width="0.490583"/>
  <path d="M19.4932 31.2778V25.715H17.5785C16.9852 27.5177 16.521 29.371 16.2109 31.2778H19.4932Z" fill="white"/>
  <path d="M19.4932 31.2778V25.715H17.5785C16.9852 27.5177 16.521 29.371 16.2109 31.2778H19.4932Z" stroke="#101010" stroke-width="0.490583"/>
  <path d="M19.4932 25.764V21.0663C18.7427 22.5722 18.0922 24.1502 17.56 25.764H19.4932Z" fill="white"/>
  <path d="M19.4932 25.764V21.0663C18.7427 22.5722 18.0922 24.1502 17.56 25.764H19.4932Z" stroke="#101010" stroke-width="0.490583"/>
  <path d="M26.6525 14.684V11.217C25.5399 12.3039 24.5009 13.4708 23.5392 14.684H26.6525Z" fill="white"/>
  <path d="M26.6525 14.684V11.217C25.5399 12.3039 24.5009 13.4708 23.5392 14.684H26.6525Z" stroke="#101010" stroke-width="0.490583"/>
  <path d="M26.7535 14.684H30.2594V9.12537H28.9779C28.2009 9.75742 27.4757 10.4317 26.7535 11.1238V14.684Z" fill="white"/>
  <path d="M26.7535 14.684H30.2594V9.12537H28.9779C28.2009 9.75742 27.4757 10.4317 26.7535 11.1238V14.684Z" stroke="#101010" stroke-width="0.490583"/>
  <path d="M30.2594 8.11426C29.8227 8.44166 29.3943 8.78745 28.9779 9.12539H30.2594V8.11426Z" fill="white"/>
  <path d="M30.2594 8.11426C29.8227 8.44166 29.3943 8.78745 28.9779 9.12539H30.2594V8.11426Z" stroke="#101010" stroke-width="0.490583"/>
  <path d="M30.3684 8.03959V9.12537H33.8713V5.73413C32.6527 6.43521 31.4859 7.19743 30.3684 8.03959Z" fill="white"/>
  <path d="M30.3684 8.03959V9.12537H33.8713V5.73413C32.6527 6.43521 31.4859 7.19743 30.3684 8.03959Z" stroke="#101010" stroke-width="0.490583"/>
  <path d="M37.4809 3.89142C36.2745 4.43299 35.0981 5.02472 33.9671 5.67682V9.12537H37.4809V3.89142Z" fill="white"/>
  <path d="M37.4809 3.89142C36.2745 4.43299 35.0981 5.02472 33.9671 5.67682V9.12537H37.4809V3.89142Z" stroke="#101010" stroke-width="0.490583"/>
  <path d="M37.5276 9.12538H41.0331V3.56409H38.2634C38.0213 3.66782 37.7735 3.77041 37.5276 3.87409V9.12538Z" fill="white"/>
  <path d="M37.5276 9.12538H41.0331V3.56409H38.2634C38.0213 3.66782 37.7735 3.77041 37.5276 3.87409V9.12538Z" stroke="#101010" stroke-width="0.490583"/>
  <path d="M87.7914 32.1358C87.7461 31.8499 87.7073 31.5663 87.6635 31.2778H84.2776V36.8391L88.1293 36.8723L87.7914 32.1358Z" fill="white"/>
  <path d="M87.7914 32.1358C87.7461 31.8499 87.7073 31.5663 87.6635 31.2778H84.2776V36.8391L88.1293 36.8723L87.7914 32.1358Z" stroke="#101010" stroke-width="0.477354"/>
  <path d="M84.2773 42.3483V47.9137H86.4673C87.0364 46.1189 87.4675 44.2551 87.7458 42.3483H84.2773Z" fill="white"/>
  <path d="M84.2773 42.3483V47.9137H86.4673C87.0364 46.1189 87.4675 44.2551 87.7458 42.3483H84.2773Z" stroke="#101010" stroke-width="0.490583"/>
  <path d="M84.2335 47.8617H80.7253V53.4203H84.1965C84.2097 53.3992 84.2229 53.374 84.2335 53.3525V47.8617Z" fill="white"/>
  <path d="M84.2335 47.8617H80.7253V53.4203H84.1965C84.2097 53.3992 84.2229 53.374 84.2335 53.3525V47.8617Z" stroke="#101010" stroke-width="0.490583"/>
  <path d="M19.6516 53.4203H23.0919V47.8617H19.5822V53.2955C19.6102 53.334 19.6233 53.374 19.6516 53.4203Z" fill="white"/>
  <path d="M19.6516 53.4203H23.0919V47.8617H19.5822V53.2955C19.6102 53.334 19.6233 53.374 19.6516 53.4203Z" stroke="#101010" stroke-width="0.490583"/>
  <path d="M16.1205 42.3483H19.4932V36.7897L15.7852 36.7976L15.9794 41.1271C16.0247 41.5315 16.0579 41.9478 16.1205 42.3483Z" fill="white"/>
  <path d="M16.1205 42.3483H19.4932V36.7897L15.7852 36.7976L15.9794 41.1271C16.0247 41.5315 16.0579 41.9478 16.1205 42.3483Z" stroke="#101010" stroke-width="0.490583"/>
  <path d="M91.5535 75.9681V74.4789L11.5703 74.5287V77.5271L91.5535 77.4698V75.9681Z" fill="#101010"/>
  <path d="M88.9805 27.8688C81.5645 27.8688 75.8964 31.7247 75.8964 38.4422C75.8964 44.1099 81.055 48.1091 87.9773 48.1091C93.2339 48.1091 97.5978 44.3015 98.8472 41.8987C98.8472 41.1497 98.0968 40.8409 97.3968 40.8409C96.194 42.6956 92.7855 44.1099 91.3897 44.0552C83.0172 43.7479 81.6656 40.3966 81.5645 36.8934C81.406 33.0763 85.5225 29.7715 89.0322 30.0203C91.0797 30.1761 91.7876 33.5315 93.5797 34.7289C94.1413 35.0363 95.4409 34.9854 96.2925 34.8353C96.9472 34.7289 98.6941 34.331 98.6941 32.8263C98.6941 31.5742 97.1426 30.1761 95.6434 29.2725C94.1413 28.5729 90.7791 27.8688 88.9805 27.8688Z" fill="#101010"/>
  <path d="M39.482 42.4004C39.482 45.5084 38.6893 47.1579 36.176 47.3058L36.2356 47.81C40.4373 47.7606 44.7069 47.81 48.8072 47.7143L48.8566 47.4585C46.9607 47.4585 45.497 45.451 45.497 42.9536V34.5838C45.497 32.5337 47.9971 31.2231 49.7093 31.38C52.3568 31.6236 53.8163 33.3253 53.8163 34.8353V43.052C53.8163 45.56 53.0609 47.1142 51.1114 47.2564V47.7143H62.6387V47.3601C60.9265 47.1579 59.7265 45.6015 59.7265 43.2493V34.6305C59.7265 32.7796 61.3349 31.5278 64.1899 31.4784C66.6979 31.4241 68.2 33.2811 68.2 35.0364V42.8473C68.2 45.5084 67.3989 47.1579 65.3994 47.3601V47.7143C69.6037 47.7606 73.0538 47.7606 77.214 47.7143V47.4585C75.0134 47.4585 74.2681 46.0047 74.2681 42.9536V34.3311C74.2681 31.4784 72.7091 28.0687 68.3478 28.0687C65.3994 28.0687 63.2293 29.5188 61.9923 29.9299C61.1366 30.2731 60.5313 30.6721 60.3238 30.6721C59.9365 30.6721 59.4869 30.4262 58.928 29.8261C57.8732 28.711 55.9785 28.0687 53.9683 28.0687C51.4109 28.0687 48.8566 29.5188 47.6486 29.9299C47.5086 29.9763 46.6039 30.4262 46.5002 30.4262C46.3048 30.4262 45.497 30.4262 45.497 30.3289C45.497 27.9235 45.6501 29.1209 45.5491 27.4219H43.8938C43.4027 27.4219 42.5342 28.3214 41.5389 28.711C40.3362 29.2193 37.9282 29.1647 36.9367 29.4257V31.1246L39.534 31.6236V34.9338L39.482 42.4004Z" fill="#101010"/>
  <path d="M28.2063 47.7606C32.626 47.5611 36.8782 46.6046 36.8782 42.3483C36.8782 39.2482 33.4711 37.2886 29.8721 35.7374C27.5573 34.7832 24.2044 33.3795 24.2044 32.2779C24.2044 30.9741 26.7562 28.4688 29.2148 30.4725L33.4711 34.0305L35.4308 33.6299L34.3359 28.3213C33.326 28.3704 32.626 28.425 28.9647 27.8171C24.4493 27.1677 19.0901 29.4256 19.0901 33.6299C19.0901 36.4385 23.1545 38.3902 26.3636 39.6955C28.1131 40.4456 31.2238 41.5502 31.2238 43.2492C31.2238 44.903 28.3153 45.3594 26.6657 45.3594C23.8556 45.3594 20.7438 41.5966 20.7438 41.5966H18.8985L19.899 47.2152C20.2422 46.9079 21.5023 46.9584 21.7561 47.0621C22.6529 47.4042 25.9114 47.9137 28.2063 47.7606Z" fill="#101010"/>
  <path d="M17.5838 30.7241V28.1204L12.1262 28.1698C11.4304 28.1698 11.4745 28.0193 11.4745 27.1172L11.5288 23.5555L8.77232 23.5102C7.92486 25.4076 6.86961 26.6661 6.27226 26.9177L1.15259 29.1647V30.7735L3.06734 30.8278C3.92005 30.8278 4.26589 30.7735 4.26589 31.7794V42.3483C4.26589 45.56 6.01691 47.9138 10.5365 48.0122C13.9304 48.1091 15.9926 46.6047 17.4401 45.2062L17.0426 43.8493C16.4343 44.2551 15.9436 44.6036 15.1358 44.6036C11.2814 44.6036 11.3825 41.5967 11.3825 38.9386V31.7794C11.3825 30.7241 11.4745 30.7241 12.1809 30.7241H17.5838Z" fill="#101010"/>
</svg>